<svg preserveAspectRatio="xMidYMid meet" width="313" height="304" overflow="visible" style="display: block;" viewBox="0 0 313.326 303.794" fill="none" xmlns="http://www.w3.org/2000/svg">
<g id="Frame 3">
<path id="Vector" d="M82.571 264.239L31.0012 276.63L11.5075 213.22L82.571 264.239Z" fill="var(--fill-0, #E47719)" stroke="var(--stroke-0, #E47719)"/>
<path id="Vector_2" d="M82.5719 264.239L104.397 251.744L112.414 247.216L82.5719 264.239Z" fill="var(--fill-0, #E17719)" stroke="var(--stroke-0, #E17719)"/>
<path id="Vector_3" d="M11.5075 213.22L48.1472 217.197L82.571 264.239L11.5075 213.22Z" fill="var(--fill-0, #E47719)" stroke="var(--stroke-0, #E47719)"/>
<path id="Vector_4" d="M56.3457 164.267L11.5075 213.22L26.1168 152.014L56.3457 164.267Z" fill="var(--fill-0, #F78419)" stroke="var(--stroke-0, #F78419)"/>
<path id="Vector_5" d="M48.1472 217.197L11.5075 213.22L56.3457 164.267L48.1472 217.197Z" fill="var(--fill-0, #F78419)" stroke="var(--stroke-0, #F78419)"/>
<path id="Vector_6" d="M18.8182 132.228L67.1473 127.885L26.1167 152.014L18.8182 132.228Z" fill="var(--fill-0, #773900)" stroke="var(--stroke-0, #773900)"/>
<path id="Vector_7" d="M18.8182 132.228L16.8132 118.207L67.1472 127.885L18.8182 132.228Z" fill="var(--fill-0, #773900)" stroke="var(--stroke-0, #773900)"/>
<path id="Vector_8" d="M67.1485 127.885L16.8144 118.207L13.8914 106.554L67.1485 127.885Z" fill="var(--fill-0, #773900)" stroke="var(--stroke-0, #773900)"/>
<path id="Vector_9" d="M26.1177 152.014L67.1483 127.885L84.4072 134.257L26.1177 152.014Z" fill="var(--fill-0, #773900)" stroke="var(--stroke-0, #773900)"/>
<path id="Vector_10" d="M60.495 67.9487L67.1485 127.885L13.8914 106.554L60.495 67.9487Z" fill="var(--fill-0, #773900)" stroke="var(--stroke-0, #773900)"/>
<path id="Vector_11" d="M84.4072 134.257L67.1483 127.885L60.4948 67.9487L84.4072 134.257Z" fill="var(--fill-0, #773900)" stroke="var(--stroke-0, #773900)"/>
<path id="Vector_12" d="M26.1166 152.014L12.9974 136.548L18.8181 132.228L26.1166 152.014Z" fill="var(--fill-0, #773900)" stroke="var(--stroke-0, #773900)"/>
<path id="Vector_13" d="M18.819 132.228L9.69822 123.932L16.814 118.207L18.819 132.228Z" fill="var(--fill-0, #773900)" stroke="var(--stroke-0, #773900)"/>
<path id="Vector_14" d="M7.60233 111.367L13.8911 106.554L16.8141 118.207L7.60233 111.367Z" fill="var(--fill-0, #773900)" stroke="var(--stroke-0, #773900)"/>
<path id="Vector_15" d="M13.8904 106.554L0.688881 60.1868L60.494 67.9487L13.8904 106.554Z" fill="var(--fill-0, #773900)" stroke="var(--stroke-0, #773900)"/>
<path id="Vector_16" d="M198.359 257.02L201.582 252.017L186.794 283.027L198.359 257.02Z" fill="var(--fill-0, #C0AC9D)" stroke="var(--stroke-0, #C0AC9D)"/>
<path id="Vector_17" d="M26.1177 152.014L84.4072 134.257L56.3465 164.267L26.1177 152.014Z" fill="var(--fill-0, #F78419)" stroke="var(--stroke-0, #F78419)"/>
<path id="Vector_18" d="M122.077 97.0079L8.58997 16.3195L113.765 45.4298L122.077 97.0079Z" fill="var(--fill-0, #E47719)" stroke="var(--stroke-0, #E47719)"/>
<path id="Vector_19" d="M166.626 96.3173L122.078 97.0079L113.766 45.4298L166.626 96.3173Z" fill="var(--fill-0, #F78419)" stroke="var(--stroke-0, #F78419)"/>
<path id="Vector_20" d="M113.766 45.4298L195.524 42.2099L166.626 96.3173L113.766 45.4298Z" fill="var(--fill-0, #F78419)" stroke="var(--stroke-0, #F78419)"/>
<path id="Vector_21" d="M60.4948 67.9487L122.078 97.0079L84.4072 134.257L60.4948 67.9487Z" fill="var(--fill-0, #773900)" stroke="var(--stroke-0, #773900)"/>
<path id="Vector_22" d="M84.4067 134.257L122.077 97.0079L115.579 168.956L84.4067 134.257Z" fill="var(--fill-0, #E47719)" stroke="var(--stroke-0, #E47719)"/>
<path id="Vector_23" d="M115.578 168.956L56.3456 164.267L84.4063 134.257L115.578 168.956Z" fill="var(--fill-0, #E47719)" stroke="var(--stroke-0, #E47719)"/>
<path id="Vector_24" d="M60.494 67.9487L0.688881 60.1868L8.5899 16.3195L60.494 67.9487Z" fill="var(--fill-0, #773900)" stroke="var(--stroke-0, #773900)"/>
<path id="Vector_25" d="M311.689 225.228L291.307 294.872L206.769 272.011L311.689 225.228Z" fill="var(--fill-0, #E47719)" stroke="var(--stroke-0, #E47719)"/>
<path id="Vector_26" d="M8.58997 16.3195L122.077 97.0079L60.494 67.9487L8.58997 16.3195Z" fill="var(--fill-0, #773900)" stroke="var(--stroke-0, #773900)"/>
<path id="Vector_27" d="M285.045 154.671L217.784 134.479L244.906 127.649L285.045 154.671Z" fill="var(--fill-0, #773900)" stroke="var(--stroke-0, #773900)"/>
<path id="Vector_28" d="M293.819 132.431L285.045 154.671L244.906 127.649L293.819 132.431Z" fill="var(--fill-0, #773900)" stroke="var(--stroke-0, #773900)"/>
<path id="Vector_29" d="M293.819 132.431L244.906 127.649L296.737 116.517L293.819 132.431Z" fill="var(--fill-0, #773900)" stroke="var(--stroke-0, #773900)"/>
<path id="Vector_30" d="M82.5717 264.239L48.1479 217.197L78.7056 219.689L82.5717 264.239Z" fill="var(--fill-0, #CD6200)" stroke="var(--stroke-0, #CD6200)"/>
<path id="Vector_31" d="M244.906 127.649L300.516 103.203L296.737 116.517L244.906 127.649Z" fill="var(--fill-0, #773900)" stroke="var(--stroke-0, #773900)"/>
<path id="Vector_32" d="M300.516 103.203L244.906 127.649L236.362 62.723L300.516 103.203Z" fill="var(--fill-0, #773900)" stroke="var(--stroke-0, #773900)"/>
<path id="Vector_33" d="M236.362 62.723L244.906 127.649L217.784 134.479L236.362 62.723Z" fill="var(--fill-0, #773900)" stroke="var(--stroke-0, #773900)"/>
<path id="Vector_34" d="M285.494 0.944167L166.626 96.3173L195.524 42.2099L285.494 0.944167Z" fill="var(--fill-0, #E17719)" stroke="var(--stroke-0, #E17719)"/>
<path id="Vector_35" d="M217.785 134.479L166.626 96.3173L236.363 62.723L217.785 134.479Z" fill="var(--fill-0, #773900)" stroke="var(--stroke-0, #773900)"/>
<path id="Vector_36" d="M285.045 154.671L225.901 166.967L217.784 134.479L285.045 154.671Z" fill="var(--fill-0, #F78419)" stroke="var(--stroke-0, #F78419)"/>
<path id="Vector_37" d="M217.784 134.479L225.901 166.967L151.626 169.592L217.784 134.479Z" fill="var(--fill-0, #E47719)" stroke="var(--stroke-0, #E47719)"/>
<path id="Vector_38" d="M151.626 169.592L166.625 96.3173L217.784 134.479L151.626 169.592Z" fill="var(--fill-0, #E47719)" stroke="var(--stroke-0, #E47719)"/>
<path id="Vector_39" d="M206.769 272.011L234.924 224.893L311.689 225.228L206.769 272.011Z" fill="var(--fill-0, #E47719)" stroke="var(--stroke-0, #E47719)"/>
<path id="Vector_40" d="M225.901 166.967L285.045 154.671L311.689 225.228L225.901 166.967Z" fill="var(--fill-0, #F78419)" stroke="var(--stroke-0, #F78419)"/>
<path id="Vector_41" d="M225.901 166.968L311.689 225.228L234.924 224.893L225.901 166.968Z" fill="var(--fill-0, #F78419)" stroke="var(--stroke-0, #F78419)"/>
<path id="Vector_42" d="M56.3463 164.267L78.7056 219.689L48.1479 217.197L56.3463 164.267Z" fill="var(--fill-0, #F78419)" stroke="var(--stroke-0, #F78419)"/>
<path id="Vector_43" d="M122.077 97.0079L166.625 96.3173L151.626 169.592L122.077 97.0079Z" fill="var(--fill-0, #F78419)" stroke="var(--stroke-0, #F78419)"/>
<path id="Vector_44" d="M151.625 169.592L115.578 168.956L122.076 97.0079L151.625 169.592Z" fill="var(--fill-0, #F78419)" stroke="var(--stroke-0, #F78419)"/>
<path id="Vector_45" d="M56.3456 164.267L78.8816 192.464L78.7048 219.689L56.3456 164.267Z" fill="var(--fill-0, #E47424)" stroke="var(--stroke-0, #E47424)"/>
<path id="Vector_46" d="M78.8816 192.464L56.3456 164.267L115.578 168.956L78.8816 192.464Z" fill="var(--fill-0, #CD6200)" stroke="var(--stroke-0, #CD6200)"/>
<path id="Vector_47" d="M82.5719 264.239L88.2003 251.889L86.3463 277.694L82.5719 264.239Z" fill="var(--fill-0, #D6C2B2)" stroke="var(--stroke-0, #D6C2B2)"/>
<path id="Vector_48" d="M88.1996 251.889L82.5712 264.239L78.705 219.689L88.1996 251.889Z" fill="var(--fill-0, #E47719)" stroke="var(--stroke-0, #E47719)"/>
<path id="Vector_49" d="M285.044 154.671L293.818 132.431L299.763 137.36L285.044 154.671Z" fill="var(--fill-0, #773900)" stroke="var(--stroke-0, #773900)"/>
<path id="Vector_50" d="M293.818 132.431L296.737 116.517L304.024 122.965L293.818 132.431Z" fill="var(--fill-0, #773900)" stroke="var(--stroke-0, #773900)"/>
<path id="Vector_51" d="M206.768 272.011L191.449 224.399L234.923 224.893L206.768 272.011Z" fill="var(--fill-0, #CD6200)" stroke="var(--stroke-0, #CD6200)"/>
<path id="Vector_52" d="M307.006 108.556L296.737 116.517L300.515 103.203L307.006 108.556Z" fill="var(--fill-0, #773900)" stroke="var(--stroke-0, #773900)"/>
<path id="Vector_53" d="M236.363 62.723L166.626 96.3173L285.494 0.944167L236.363 62.723Z" fill="var(--fill-0, #773900)" stroke="var(--stroke-0, #773900)"/>
<path id="Vector_54" d="M236.362 62.723L308.151 49.6216L300.516 103.203L236.362 62.723Z" fill="var(--fill-0, #773900)" stroke="var(--stroke-0, #773900)"/>
<path id="Vector_55" d="M115.579 168.956L100.866 182.355L78.8824 192.464L115.579 168.956Z" fill="var(--fill-0, #CD6200)" stroke="var(--stroke-0, #CD6200)"/>
<path id="Vector_56" d="M107.939 203.91L78.8824 192.464L100.866 182.355L107.939 203.91Z" fill="var(--fill-0, #243343)" stroke="var(--stroke-0, #243343)"/>
<path id="Vector_57" d="M78.705 219.689L78.8818 192.464L107.938 203.91L78.705 219.689Z" fill="var(--fill-0, #F78419)" stroke="var(--stroke-0, #F78419)"/>
<path id="Vector_58" d="M92.096 287.911L93.1617 299.463L89.0837 276.377L92.096 287.911Z" fill="var(--fill-0, #C0AC9D)" stroke="var(--stroke-0, #C0AC9D)"/>
<path id="Vector_59" d="M140.76 291.48L206.769 272.011L186.795 283.027L140.76 291.48Z" fill="var(--fill-0, #C0AC9D)" stroke="var(--stroke-0, #C0AC9D)"/>
<path id="Vector_60" d="M285.494 0.944167L308.151 49.6216L236.362 62.723L285.494 0.944167Z" fill="var(--fill-0, #773900)" stroke="var(--stroke-0, #773900)"/>
<path id="Vector_61" d="M100.866 182.355L115.58 168.956L107.939 203.91L100.866 182.355Z" fill="var(--fill-0, #CD6200)" stroke="var(--stroke-0, #CD6200)"/>
<path id="Vector_62" d="M135.476 281.072L206.769 272.011L140.76 291.48L135.476 281.072Z" fill="var(--fill-0, #D6C2B2)" stroke="var(--stroke-0, #D6C2B2)"/>
<path id="Vector_63" d="M206.768 272.011L135.475 281.072L131.304 254.33L206.768 272.011Z" fill="var(--fill-0, #D6C2B2)" stroke="var(--stroke-0, #D6C2B2)"/>
<path id="Vector_64" d="M131.304 254.33L191.449 224.399L206.768 272.011L131.304 254.33Z" fill="var(--fill-0, #E47719)" stroke="var(--stroke-0, #E47719)"/>
<path id="Vector_65" d="M107.938 203.91L115.579 168.956L112.991 191.629L107.938 203.91Z" fill="var(--fill-0, #E47424)" stroke="var(--stroke-0, #E47424)"/>
<path id="Vector_66" d="M112.99 191.629L115.578 168.956L151.625 169.592L112.99 191.629Z" fill="var(--fill-0, #F78419)" stroke="var(--stroke-0, #F78419)"/>
<path id="Vector_67" d="M234.923 224.893L191.449 224.399L225.9 166.968L234.923 224.893Z" fill="var(--fill-0, #F78419)" stroke="var(--stroke-0, #F78419)"/>
<path id="Vector_68" d="M151.626 169.592L225.901 166.968L193.947 195.801L151.626 169.592Z" fill="var(--fill-0, #CD6200)" stroke="var(--stroke-0, #CD6200)"/>
<path id="Vector_69" d="M225.9 166.968L191.449 224.399L193.947 195.801L225.9 166.968Z" fill="var(--fill-0, #E47424)" stroke="var(--stroke-0, #E47424)"/>
<path id="Vector_70" d="M88.1996 251.889L78.705 219.689L107.938 203.91L88.1996 251.889Z" fill="var(--fill-0, #F78419)" stroke="var(--stroke-0, #F78419)"/>
<path id="Vector_71" d="M193.947 195.801L168.778 183.985L151.626 169.592L193.947 195.801Z" fill="var(--fill-0, #CD6200)" stroke="var(--stroke-0, #CD6200)"/>
<path id="Vector_72" d="M156.013 205.54L168.778 183.985L193.947 195.8L156.013 205.54Z" fill="var(--fill-0, #243343)" stroke="var(--stroke-0, #243343)"/>
<path id="Vector_73" d="M168.778 183.985L156.013 205.54L151.626 169.592L168.778 183.985Z" fill="var(--fill-0, #CD6200)" stroke="var(--stroke-0, #CD6200)"/>
<path id="Vector_74" d="M186.794 283.027L137.397 302.944L140.76 291.48L186.794 283.027Z" fill="var(--fill-0, #C0AC9D)" stroke="var(--stroke-0, #C0AC9D)"/>
<path id="Vector_75" d="M191.449 224.399L156.013 205.54L193.947 195.8L191.449 224.399Z" fill="var(--fill-0, #F78419)" stroke="var(--stroke-0, #F78419)"/>
<path id="Vector_76" d="M151.625 169.592L145.859 192.554L112.99 191.629L151.625 169.592Z" fill="var(--fill-0, #F78419)" stroke="var(--stroke-0, #F78419)"/>
<path id="Vector_77" d="M156.013 205.54L145.859 192.554L151.625 169.592L156.013 205.54Z" fill="var(--fill-0, #E17719)" stroke="var(--stroke-0, #E17719)"/>
<path id="Vector_78" d="M112.99 191.629L93.6118 248.267L107.938 203.91L112.99 191.629Z" fill="var(--fill-0, #E47424)" stroke="var(--stroke-0, #E47424)"/>
<path id="Vector_79" d="M107.938 203.91L93.6117 248.267L88.1997 251.889L107.938 203.91Z" fill="var(--fill-0, #F78419)" stroke="var(--stroke-0, #F78419)"/>
<path id="Vector_80" d="M156.013 205.54L191.449 224.399L131.304 254.33L156.013 205.54Z" fill="var(--fill-0, #F78419)" stroke="var(--stroke-0, #F78419)"/>
<path id="Vector_81" d="M145.86 192.554L156.014 205.54L125.626 250.021L145.86 192.554Z" fill="var(--fill-0, #E47424)" stroke="var(--stroke-0, #E47424)"/>
<path id="Vector_82" d="M131.305 254.33L125.626 250.021L156.014 205.54L131.305 254.33Z" fill="var(--fill-0, #F78419)" stroke="var(--stroke-0, #F78419)"/>
<path id="Vector_83" d="M112.99 191.629L145.859 192.554L125.625 250.021L112.99 191.629Z" fill="var(--fill-0, #F78419)" stroke="var(--stroke-0, #F78419)"/>
<path id="Vector_84" d="M125.626 250.021L93.6118 248.267L112.99 191.629L125.626 250.021Z" fill="var(--fill-0, #F78419)" stroke="var(--stroke-0, #F78419)"/>
<path id="Vector_85" d="M86.3465 277.694L86.5829 275.586L93.1623 299.463L86.3465 277.694Z" fill="var(--fill-0, #C0AC9D)" stroke="var(--stroke-0, #C0AC9D)"/>
<path id="Vector_86" d="M93.1615 299.463L86.582 275.586L129.966 278.526L93.1615 299.463Z" fill="var(--fill-0, #C0AC9D)" stroke="var(--stroke-0, #C0AC9D)"/>
<path id="Vector_87" d="M129.966 278.526L137.397 302.944L93.162 299.463L129.966 278.526Z" fill="var(--fill-0, #C0AC9D)" stroke="var(--stroke-0, #C0AC9D)"/>
<path id="Vector_88" d="M135.476 281.072L140.76 291.48L137.397 302.944L135.476 281.072Z" fill="var(--fill-0, #C0AC9D)" stroke="var(--stroke-0, #C0AC9D)"/>
<path id="Vector_89" d="M137.396 302.944L129.966 278.526L135.475 281.072L137.396 302.944Z" fill="var(--fill-0, #C0AC9D)" stroke="var(--stroke-0, #C0AC9D)"/>
<path id="Vector_90" d="M86.5829 275.586L86.3465 277.694L88.2005 251.889L86.5829 275.586Z" fill="var(--fill-0, black)" stroke="var(--stroke-0, black)"/>
<path id="Vector_91" d="M88.1997 251.889L93.6117 248.267L88.2863 254.412L88.1997 251.889Z" fill="var(--fill-0, black)" stroke="var(--stroke-0, black)"/>
<path id="Vector_92" d="M88.287 254.412L84.8636 258.264L88.2004 251.889L88.287 254.412Z" fill="var(--fill-0, black)" stroke="var(--stroke-0, black)"/>
<path id="Vector_93" d="M88.2862 254.412L93.6117 248.267L125.625 250.021L88.2862 254.412Z" fill="var(--fill-0, black)" stroke="var(--stroke-0, black)"/>
<path id="Vector_94" d="M129.967 278.526L86.5828 275.586L84.8636 258.264L129.967 278.526Z" fill="var(--fill-0, black)" stroke="var(--stroke-0, black)"/>
<path id="Vector_95" d="M131.304 254.33L135.475 281.072L129.966 278.526L131.304 254.33Z" fill="var(--fill-0, black)" stroke="var(--stroke-0, black)"/>
<path id="Vector_96" d="M125.625 250.021L120.751 256.289L88.2862 254.412L125.625 250.021Z" fill="var(--fill-0, black)" stroke="var(--stroke-0, black)"/>
<path id="Vector_97" d="M120.752 256.289L125.626 250.021L131.305 254.33L120.752 256.289Z" fill="var(--fill-0, black)" stroke="var(--stroke-0, black)"/>
<path id="Vector_98" d="M129.966 278.526L124.376 260.624L131.304 254.33L129.966 278.526Z" fill="var(--fill-0, black)" stroke="var(--stroke-0, black)"/>
<path id="Vector_99" d="M131.305 254.33L124.377 260.624L120.752 256.289L131.305 254.33Z" fill="var(--fill-0, black)" stroke="var(--stroke-0, black)"/>
<path id="Vector_100" d="M84.8636 258.264L124.377 260.624L129.967 278.526L84.8636 258.264Z" fill="var(--fill-0, black)" stroke="var(--stroke-0, black)"/>
<path id="Vector_101" d="M84.8636 258.264L88.287 254.412L120.752 256.289L84.8636 258.264Z" fill="var(--fill-0, black)" stroke="var(--stroke-0, black)"/>
<path id="Vector_102" d="M120.752 256.289L124.377 260.624L84.8636 258.264L120.752 256.289Z" fill="var(--fill-0, black)" stroke="var(--stroke-0, black)"/>
</g>
</svg>
